# xmcd CD database file
#
# Track frame offsets:
#	150
#	19340
#	30750
#	45825
#	57752
#	75892
#	90147
#	107102
#	125557
#	138607
#
# Disc length: 2008 seconds
#
# Revision: 0
# Processed by: cddbd v1.5.2PL0 Copyright (c) Steve Scherf et al.
# Submitted via: CDex 1.79
#
DISCID=6807d60a
DTITLE=Debra Dudley - Debra Dudley
DYEAR=1990
DGENRE=Country
TTITLE0=Mama`s Rocking Chair
TTITLE1=Stop-N-Get Up
TTITLE2=If Only We Could
TTITLE3=I`m Runnin` Out Of Memories
TTITLE4=Every Woman Knows
TTITLE5=One Track heart
TTITLE6=I`ll Never Marry A Honky-Tonk Man
TTITLE7=Six Weeks Every Summer (Christmas Every Other Year)
TTITLE8=My Way Or The Highway
TTITLE9=I`m Your Lady, You`re My Man
EXTD=YEAR: 1990
EXTT0=
EXTT1=
EXTT2=
EXTT3=
EXTT4=
EXTT5=
EXTT6=
EXTT7=
EXTT8=
EXTT9=
PLAYORDER=
